# xmcd
#
# Track frame offsets: 
#        150
#        19361
#        35640
#        52957
#        71146
#        89925
#        112193
#
# Disc length: 1693 seconds
#
# Revision: 0
# Processed by: cddbd v1.5.2PL0 Copyright (c) Steve Scherf et al.
# Submitted via: ExactAudioCopy v1.3
#
DISCID=6a069b07
DTITLE=Rebecca Downes - Real Life
DYEAR=1900
DGENRE=
TTITLE0=Real Life
TTITLE1=When I'm Bad
TTITLE2=You Don't Know
TTITLE3=Basement Of My Heart 
TTITLE4=Better For Knowing You
TTITLE5=Breaking Your Heart (Acoustic) 
TTITLE6=Feels So Right (Acoustic)
EXTD=
EXTT0=
EXTT1=
EXTT2=
EXTT3=
EXTT4=
EXTT5=
EXTT6=
PLAYORDER=
